<svg width="330" height="322" viewBox="0 0 330 322" fill="none" xmlns="http://www.w3.org/2000/svg">
<path fill-rule="evenodd" clip-rule="evenodd" d="M303.146 306.496L307.92 315.441V320.807L309.711 321.404V316.037L315.081 308.285V306.496H313.291L309.114 312.459L306.13 308.285L303.146 306.496ZM274.503 306.496L273.906 320.807L275.696 321.404L276.293 307.093L274.503 306.496ZM220.796 306.496V321.404H222.586L223.183 316.037H226.763L229.747 320.807L232.134 321.404L229.15 316.037L232.134 313.056L231.537 307.689L229.747 306.496H220.796ZM222.586 309.478L224.376 307.689H227.957L230.344 310.074V311.863L226.763 314.248L223.779 313.652L222.586 312.459V309.478ZM199.313 306.496V319.019L204.684 322L209.458 320.807L211.844 317.826V306.496H210.054V316.037L207.667 319.615H202.893L201.103 317.826L200.506 306.496H199.313ZM155.154 306.496L160.524 316.037V321.404H161.718L162.315 314.844L165.895 310.074L167.089 306.496L164.702 307.689L161.718 312.459H160.524L158.734 308.882L155.154 306.496ZM123.526 306.496V321.404L125.316 320.807V317.23L127.107 315.441H128.3L133.671 321.404H135.461L130.09 314.248V312.459L134.864 306.496H133.074L126.51 313.056L125.316 312.459V306.496H123.526ZM62.6582 306.496L62.0615 320.807L71.6094 321.404L71.0127 319.615H65.0452L63.8517 318.422L64.4485 307.093L62.6582 306.496ZM40.5787 306.496V321.404H41.7722V313.056L42.9656 311.863L50.7233 320.807L52.5136 321.404L53.1103 306.496L51.3201 307.093L50.7233 316.633L44.7559 309.478L40.5787 306.496ZM18.4991 306.496L17.9024 316.633L19.0958 319.615L23.2731 322L28.047 321.404L31.0307 318.422L31.6275 306.496H29.2405V317.23L25.66 320.211L22.6763 319.615L20.2893 317.23V306.496H18.4991ZM284.647 305.9L283.454 306.496L284.051 308.285L288.825 308.882V321.404H290.615V308.882L295.389 307.689V306.496L284.647 305.9ZM258.391 305.9L254.81 307.689L253.02 310.074V317.826L256.6 321.404H263.165L265.552 319.615L264.955 318.422L260.181 320.211L257.794 319.615L254.213 315.441L254.81 311.267L257.794 308.285H265.552L262.568 305.9H258.391ZM180.814 305.9L175.443 309.478L174.25 314.844L176.04 319.615L179.023 321.404L183.201 322L186.781 320.807L190.362 316.037V311.267L187.378 307.093L180.814 305.9ZM182.007 307.689L184.991 308.285L187.975 311.267L187.378 317.23L182.604 320.211L179.023 319.019L176.637 315.441L177.83 310.074L182.007 307.689ZM107.414 305.9L103.237 308.882L101.447 314.844L102.043 317.23L105.027 320.807L110.995 322L113.978 320.807L114.575 318.422L112.188 319.615L106.221 319.019L103.834 315.441V312.459L105.027 310.074L108.608 307.689L114.575 308.882V307.689L111.591 305.9H107.414ZM82.3508 306.496L79.9638 308.285L78.1736 311.863L79.3671 319.019L82.3508 321.404H89.5117L92.4955 319.019L94.2857 315.441L93.689 310.67L90.1085 306.496H82.3508ZM85.3345 307.689L88.915 308.285L91.302 310.67L92.4955 314.248L91.302 317.23L87.1248 320.211L83.5443 319.615L79.9638 314.844L81.7541 309.478L85.3345 307.689ZM179.62 280.259V285.03L183.797 288.607H241.085L243.472 287.415L245.262 284.433L244.665 279.663L241.682 277.278H182.604L179.62 280.259ZM182.604 247.463L183.797 251.041L186.184 252.83H238.101L240.488 251.637L241.682 249.252L240.488 243.289L237.505 241.5H187.378L183.797 243.885L182.604 247.463ZM258.391 206.915L256.004 209.896V214.07L260.181 217.648H309.114L309.711 219.437L256.6 278.47L255.407 281.452L256.004 286.222L258.987 288.607H324.629L327.613 287.415L330 282.048L328.806 279.067L325.823 277.278H276.293L275.099 276.085L328.806 215.859L330 213.474L329.403 208.107L327.016 206.319L258.391 206.915ZM179.62 209.896L180.814 215.859L183.797 217.648H241.085L245.262 213.474L244.665 209.3L241.682 206.319H182.604L179.62 209.896ZM111.591 206.319L109.204 209.3L110.398 287.415L112.188 288.607H144.412L150.976 287.415L157.541 284.433L165.298 277.278L168.879 268.333V260.581L165.895 252.83L161.718 248.059L155.154 243.885L159.928 238.519L162.315 233.748L162.911 225.4L160.524 217.648L153.96 210.493L145.606 206.915L111.591 206.319ZM121.736 251.637L144.412 251.041L148.59 252.233L154.557 257.6L155.75 259.985L156.347 265.352L153.96 271.315L149.783 274.893L143.816 277.278L122.333 276.681L121.736 251.637ZM121.736 218.841L122.929 217.648H140.235L146.203 220.033L150.38 225.996V231.363L148.59 235.537L145.009 238.519L139.042 240.307L122.333 239.711L121.736 218.841ZM90.7052 205.722L88.3183 206.319L85.9313 209.3V284.433L88.3183 288.011L94.2857 288.607L97.8662 284.433V209.896L94.8825 206.319L90.7052 205.722ZM2.38698 206.319L0 208.704L1.19349 215.859L31.0307 285.03L34.6112 288.607H39.3852L42.9656 285.626L72.8029 217.648L74.5931 212.878V209.3L71.6094 206.319H65.0452L62.0615 209.3L50.7233 239.115L45.9494 248.059L38.7884 266.544L36.9982 267.737L11.9349 208.704L7.75769 205.722L2.38698 206.319ZM74.5931 2.98148V9.54074L140.235 161L145.606 164.578H186.184L188.571 163.385L192.749 157.422L241.682 42.337L256.6 8.94444V4.17407L255.407 1.78889L252.423 0H213.038L207.667 3.57778L197.523 27.4296L195.136 30.4111L184.991 22.063L177.83 18.4852L171.266 16.6963H160.524L152.17 18.4852L146.799 20.8704L135.461 29.2185L124.123 5.36667L119.349 0.596296L78.7703 0L74.5931 2.98148ZM162.315 26.237L171.863 26.8333L180.217 30.4111L188.571 38.163L193.345 48.8963V59.6296L191.555 66.1889L171.863 107.333L165.895 117.47L139.042 64.4L137.251 58.437L137.848 47.1074L142.025 38.163L150.38 30.4111L162.315 26.237ZM161.718 35.1815L154.557 38.163L149.186 43.5296L146.799 49.4926V59.0333L149.783 64.9963L155.154 70.363L162.911 73.3444H167.685L174.846 70.9593L180.814 65.5926L183.797 60.2259L184.394 51.8778L182.007 44.7222L176.637 38.7593L168.282 35.1815H161.718ZM163.508 44.7222L169.476 45.9148L174.25 51.8778L173.653 58.437L170.072 62.0148L167.089 63.2074H162.911L160.524 62.0148L157.541 59.0333L155.75 53.6667L158.137 48.3L163.508 44.7222Z" fill="#CF0738"/>
</svg>
